<mxfile host="app.diagrams.net" modified="2024-01-01T00:00:00.000Z" agent="5.0" etag="xxx" version="22.1.16" type="device">
  <diagram name="Fluxo E2E" id="e2e-flow">
    <mxGraphModel dx="1422" dy="794" grid="1" gridSize="10" guides="1" tooltips="1" connect="1" arrows="1" fold="1" page="1" pageScale="1" pageWidth="827" pageHeight="1169" math="0" shadow="0">
      <root>
        <mxCell id="0" />
        <mxCell id="1" parent="0" />
        
        <!-- Start -->
        <mxCell id="2" value="INÍCIO" style="ellipse;whiteSpace=wrap;html=1;fillColor=#d5e8d4;strokeColor=#82b366;fontStyle=1" vertex="1" parent="1">
          <mxGeometry x="350" y="30" width="120" height="50" as="geometry" />
        </mxCell>
        
        <!-- Setup -->
        <mxCell id="3" value="Configuração&#xa;(2-8 jogadores)" style="rounded=1;whiteSpace=wrap;html=1;fillColor=#dae8fc;strokeColor=#6c8ebf;" vertex="1" parent="1">
          <mxGeometry x="320" y="120" width="180" height="60" as="geometry" />
        </mxCell>
        
        <!-- Writing Phase -->
        <mxCell id="4" value="Fase de Escrita&#xa;Cada jogador escreve&#xa;uma frase" style="rounded=1;whiteSpace=wrap;html=1;fillColor=#fff2cc;strokeColor=#d6b656;" vertex="1" parent="1">
          <mxGeometry x="320" y="220" width="180" height="80" as="geometry" />
        </mxCell>
        
        <!-- Shuffle -->
        <mxCell id="5" value="Embaralhar&#xa;Frases" style="rhombus;whiteSpace=wrap;html=1;fillColor=#e1d5e7;strokeColor=#9673a6;" vertex="1" parent="1">
          <mxGeometry x="350" y="340" width="120" height="60" as="geometry" />
        </mxCell>
        
        <!-- Guessing Phase -->
        <mxCell id="6" value="Fase de Adivinhação&#xa;Mostrar frase&#xa;Grupo vota" style="rounded=1;whiteSpace=wrap;html=1;fillColor=#f8cecc;strokeColor=#b85450;" vertex="1" parent="1">
          <mxGeometry x="320" y="440" width="180" height="80" as="geometry" />
        </mxCell>
        
        <!-- Check Answer -->
        <mxCell id="7" value="Grupo&#xa;acertou?" style="rhombus;whiteSpace=wrap;html=1;fillColor=#e1d5e7;strokeColor=#9673a6;" vertex="1" parent="1">
          <mxGeometry x="350" y="560" width="120" height="80" as="geometry" />
        </mxCell>
        
        <!-- Correct Answer -->
        <mxCell id="8" value="Autor perde&#xa;1 ponto" style="rounded=1;whiteSpace=wrap;html=1;fillColor=#ffcccc;strokeColor=#ff6666;" vertex="1" parent="1">
          <mxGeometry x="150" y="580" width="120" height="40" as="geometry" />
        </mxCell>
        
        <!-- Wrong Answer -->
        <mxCell id="9" value="Ninguém perde&#xa;ponto" style="rounded=1;whiteSpace=wrap;html=1;fillColor=#ccffcc;strokeColor=#66ff66;" vertex="1" parent="1">
          <mxGeometry x="550" y="580" width="120" height="40" as="geometry" />
        </mxCell>
        
        <!-- Update Score -->
        <mxCell id="10" value="Atualizar&#xa;Placar" style="rounded=1;whiteSpace=wrap;html=1;fillColor=#fff2cc;strokeColor=#d6b656;" vertex="1" parent="1">
          <mxGeometry x="350" y="680" width="120" height="50" as="geometry" />
        </mxCell>
        
        <!-- Check Game End -->
        <mxCell id="11" value="≤1 jogador&#xa;com pontos?" style="rhombus;whiteSpace=wrap;html=1;fillColor=#e1d5e7;strokeColor=#9673a6;" vertex="1" parent="1">
          <mxGeometry x="340" y="770" width="140" height="80" as="geometry" />
        </mxCell>
        
        <!-- Victory -->
        <mxCell id="12" value="VITÓRIA&#xa;Anunciar vencedor" style="ellipse;whiteSpace=wrap;html=1;fillColor=#d5e8d4;strokeColor=#82b366;fontStyle=1" vertex="1" parent="1">
          <mxGeometry x="150" y="785" width="120" height="50" as="geometry" />
        </mxCell>
        
        <!-- More Sentences -->
        <mxCell id="13" value="Mais frases&#xa;na rodada?" style="rhombus;whiteSpace=wrap;html=1;fillColor=#e1d5e7;strokeColor=#9673a6;" vertex="1" parent="1">
          <mxGeometry x="540" y="770" width="140" height="80" as="geometry" />
        </mxCell>
        
        <!-- New Round -->
        <mxCell id="14" value="Nova Rodada&#xa;Escrita" style="rounded=1;whiteSpace=wrap;html=1;fillColor=#dae8fc;strokeColor=#6c8ebf;" vertex="1" parent="1">
          <mxGeometry x="720" y="785" width="100" height="50" as="geometry" />
        </mxCell>
        
        <!-- Arrows -->
        <mxCell id="15" value="" style="endArrow=classic;html=1;rounded=0;" edge="1" parent="1" source="2" target="3">
          <mxGeometry width="50" height="50" relative="1" as="geometry">
            <mxPoint x="390" y="270" as="sourcePoint" />
            <mxPoint x="440" y="220" as="targetPoint" />
          </mxGeometry>
        </mxCell>
        
        <mxCell id="16" value="" style="endArrow=classic;html=1;rounded=0;" edge="1" parent="1" source="3" target="4">
          <mxGeometry width="50" height="50" relative="1" as="geometry">
            <mxPoint x="390" y="270" as="sourcePoint" />
            <mxPoint x="440" y="220" as="targetPoint" />
          </mxGeometry>
        </mxCell>
        
        <mxCell id="17" value="" style="endArrow=classic;html=1;rounded=0;" edge="1" parent="1" source="4" target="5">
          <mxGeometry width="50" height="50" relative="1" as="geometry">
            <mxPoint x="390" y="370" as="sourcePoint" />
            <mxPoint x="440" y="320" as="targetPoint" />
          </mxGeometry>
        </mxCell>
        
        <mxCell id="18" value="" style="endArrow=classic;html=1;rounded=0;" edge="1" parent="1" source="5" target="6">
          <mxGeometry width="50" height="50" relative="1" as="geometry">
            <mxPoint x="390" y="470" as="sourcePoint" />
            <mxPoint x="440" y="420" as="targetPoint" />
          </mxGeometry>
        </mxCell>
        
        <mxCell id="19" value="" style="endArrow=classic;html=1;rounded=0;" edge="1" parent="1" source="6" target="7">
          <mxGeometry width="50" height="50" relative="1" as="geometry">
            <mxPoint x="390" y="570" as="sourcePoint" />
            <mxPoint x="440" y="520" as="targetPoint" />
          </mxGeometry>
        </mxCell>
        
        <mxCell id="20" value="SIM" style="endArrow=classic;html=1;rounded=0;" edge="1" parent="1" source="7" target="8">
          <mxGeometry width="50" height="50" relative="1" as="geometry">
            <mxPoint x="290" y="620" as="sourcePoint" />
            <mxPoint x="340" y="570" as="targetPoint" />
          </mxGeometry>
        </mxCell>
        
        <mxCell id="21" value="NÃO" style="endArrow=classic;html=1;rounded=0;" edge="1" parent="1" source="7" target="9">
          <mxGeometry width="50" height="50" relative="1" as="geometry">
            <mxPoint x="490" y="620" as="sourcePoint" />
            <mxPoint x="540" y="570" as="targetPoint" />
          </mxGeometry>
        </mxCell>
        
        <mxCell id="22" value="" style="endArrow=classic;html=1;rounded=0;" edge="1" parent="1" source="8" target="10">
          <mxGeometry width="50" height="50" relative="1" as="geometry">
            <mxPoint x="290" y="670" as="sourcePoint" />
            <mxPoint x="340" y="620" as="targetPoint" />
          </mxGeometry>
        </mxCell>
        
        <mxCell id="23" value="" style="endArrow=classic;html=1;rounded=0;" edge="1" parent="1" source="9" target="10">
          <mxGeometry width="50" height="50" relative="1" as="geometry">
            <mxPoint x="490" y="670" as="sourcePoint" />
            <mxPoint x="540" y="620" as="targetPoint" />
          </mxGeometry>
        </mxCell>
        
        <mxCell id="24" value="" style="endArrow=classic;html=1;rounded=0;" edge="1" parent="1" source="10" target="11">
          <mxGeometry width="50" height="50" relative="1" as="geometry">
            <mxPoint x="390" y="770" as="sourcePoint" />
            <mxPoint x="440" y="720" as="targetPoint" />
          </mxGeometry>
        </mxCell>
        
        <mxCell id="25" value="SIM" style="endArrow=classic;html=1;rounded=0;" edge="1" parent="1" source="11" target="12">
          <mxGeometry width="50" height="50" relative="1" as="geometry">
            <mxPoint x="290" y="820" as="sourcePoint" />
            <mxPoint x="340" y="770" as="targetPoint" />
          </mxGeometry>
        </mxCell>
        
        <mxCell id="26" value="NÃO" style="endArrow=classic;html=1;rounded=0;" edge="1" parent="1" source="11" target="13">
          <mxGeometry width="50" height="50" relative="1" as="geometry">
            <mxPoint x="490" y="820" as="sourcePoint" />
            <mxPoint x="540" y="770" as="targetPoint" />
          </mxGeometry>
        </mxCell>
        
        <mxCell id="27" value="NÃO" style="endArrow=classic;html=1;rounded=0;" edge="1" parent="1" source="13" target="14">
          <mxGeometry width="50" height="50" relative="1" as="geometry">
            <mxPoint x="670" y="820" as="sourcePoint" />
            <mxPoint x="720" y="770" as="targetPoint" />
          </mxGeometry>
        </mxCell>
        
        <mxCell id="28" value="SIM" style="endArrow=classic;html=1;rounded=0;" edge="1" parent="1" source="13" target="6">
          <mxGeometry width="50" height="50" relative="1" as="geometry">
            <mxPoint x="610" y="750" as="sourcePoint" />
            <mxPoint x="500" y="520" as="targetPoint" />
            <Array as="points">
              <mxPoint x="610" y="750" />
              <mxPoint x="750" y="750" />
              <mxPoint x="750" y="480" />
            </Array>
          </mxGeometry>
        </mxCell>
        
        <mxCell id="29" value="" style="endArrow=classic;html=1;rounded=0;" edge="1" parent="1" source="14" target="4">
          <mxGeometry width="50" height="50" relative="1" as="geometry">
            <mxPoint x="770" y="750" as="sourcePoint" />
            <mxPoint x="500" y="300" as="targetPoint" />
            <Array as="points">
              <mxPoint x="770" y="750" />
              <mxPoint x="800" y="750" />
              <mxPoint x="800" y="260" />
            </Array>
          </mxGeometry>
        </mxCell>
        
      </root>
    </mxGraphModel>
  </diagram>
</mxfile>